<svg width="133" height="29" viewBox="0 0 133 29" fill="none" xmlns="http://www.w3.org/2000/svg">
<path d="M14.2264 20.7654V29L0 19.3333V10.7407L14.2264 20.7654Z" fill="#1A1A1A"/>
<path d="M28.0972 20.7654V29L0 8.95062V0L28.0972 20.7654Z" fill="#1A1A1A"/>
<path d="M28.4528 18.6173V10.0247L14.2264 0V8.59259L28.4528 18.6173Z" fill="#1A1A1A"/>
<path d="M54.8314 5.54545V23H52.0189L43.7945 11.1108H43.6496V23H40.4877V5.54545H43.3172L51.5331 17.4432H51.6865V5.54545H54.8314ZM63.2158 23.2557C61.9033 23.2557 60.7698 22.983 59.8153 22.4375C58.8664 21.8864 58.1363 21.108 57.6249 20.1023C57.1136 19.0909 56.8579 17.9006 56.8579 16.5312C56.8579 15.1847 57.1136 14.0028 57.6249 12.9858C58.142 11.9631 58.8636 11.1676 59.7897 10.5994C60.7158 10.0256 61.8039 9.73864 63.0539 9.73864C63.8607 9.73864 64.6221 9.86932 65.338 10.1307C66.0596 10.3864 66.696 10.7841 67.2471 11.3239C67.8039 11.8636 68.2414 12.5511 68.5596 13.3864C68.8778 14.2159 69.0369 15.2045 69.0369 16.3523V17.2983H58.3067V15.2188H66.0795C66.0738 14.6278 65.946 14.1023 65.696 13.642C65.446 13.1761 65.0965 12.8097 64.6477 12.5426C64.2045 12.2756 63.6874 12.142 63.0965 12.142C62.4658 12.142 61.9119 12.2955 61.4346 12.6023C60.9573 12.9034 60.5852 13.3011 60.3181 13.7955C60.0567 14.2841 59.9232 14.821 59.9175 15.4062V17.2216C59.9175 17.983 60.0567 18.6364 60.3352 19.1818C60.6136 19.7216 61.0028 20.1364 61.5028 20.4261C62.0028 20.7102 62.588 20.8523 63.2585 20.8523C63.7073 20.8523 64.1136 20.7898 64.4772 20.6648C64.8408 20.5341 65.1562 20.3438 65.4232 20.0938C65.6903 19.8438 65.892 19.5341 66.0283 19.1648L68.909 19.4886C68.7272 20.25 68.3806 20.9148 67.8692 21.483C67.3636 22.0455 66.7158 22.483 65.9261 22.7955C65.1363 23.1023 64.2329 23.2557 63.2158 23.2557ZM73.1684 9.90909L75.8105 14.7415L78.4951 9.90909H81.7593L77.8133 16.4545L81.8275 23H78.5804L75.8105 18.2869L73.0662 23H69.7934L73.7821 16.4545L69.8957 9.90909H73.1684ZM89.9626 9.90909V12.2955H82.4371V9.90909H89.9626ZM84.295 6.77273H87.3802V19.0625C87.3802 19.4773 87.4427 19.7955 87.5677 20.017C87.6984 20.233 87.8689 20.3807 88.0791 20.4602C88.2893 20.5398 88.5223 20.5795 88.778 20.5795C88.9712 20.5795 89.1473 20.5653 89.3064 20.5369C89.4712 20.5085 89.5962 20.483 89.6814 20.4602L90.2013 22.8722C90.0365 22.929 89.8007 22.9915 89.4939 23.0597C89.1927 23.1278 88.8234 23.1676 88.3859 23.179C87.6132 23.2017 86.9172 23.0852 86.2979 22.8295C85.6785 22.5682 85.1871 22.1648 84.8234 21.6193C84.4655 21.0739 84.2893 20.392 84.295 19.5739V6.77273ZM91.8229 23V9.90909H94.8144V12.0909H94.9507C95.1894 11.3352 95.5985 10.7528 96.178 10.3438C96.7632 9.92898 97.4308 9.72159 98.1808 9.72159C98.3513 9.72159 98.5416 9.73011 98.7519 9.74716C98.9678 9.75852 99.1467 9.77841 99.2888 9.80682V12.6449C99.1581 12.5994 98.9507 12.5597 98.6666 12.5256C98.3882 12.4858 98.1183 12.4659 97.857 12.4659C97.2945 12.4659 96.7888 12.5881 96.3399 12.8324C95.8967 13.071 95.5473 13.4034 95.2916 13.8295C95.036 14.2557 94.9081 14.7472 94.9081 15.304V23H91.8229ZM105.79 23.2557C104.511 23.2557 103.403 22.9744 102.466 22.4119C101.528 21.8494 100.801 21.0625 100.284 20.0511C99.7726 19.0398 99.5169 17.858 99.5169 16.5057C99.5169 15.1534 99.7726 13.9687 100.284 12.9517C100.801 11.9347 101.528 11.1449 102.466 10.5824C103.403 10.0199 104.511 9.73864 105.79 9.73864C107.068 9.73864 108.176 10.0199 109.114 10.5824C110.051 11.1449 110.775 11.9347 111.287 12.9517C111.804 13.9687 112.062 15.1534 112.062 16.5057C112.062 17.858 111.804 19.0398 111.287 20.0511C110.775 21.0625 110.051 21.8494 109.114 22.4119C108.176 22.9744 107.068 23.2557 105.79 23.2557ZM105.807 20.7841C106.5 20.7841 107.079 20.5937 107.545 20.2131C108.011 19.8267 108.358 19.3097 108.585 18.6619C108.818 18.0142 108.935 17.2926 108.935 16.4972C108.935 15.696 108.818 14.9716 108.585 14.3239C108.358 13.6705 108.011 13.1506 107.545 12.7642C107.079 12.3778 106.5 12.1847 105.807 12.1847C105.096 12.1847 104.506 12.3778 104.034 12.7642C103.568 13.1506 103.219 13.6705 102.986 14.3239C102.758 14.9716 102.645 15.696 102.645 16.4972C102.645 17.2926 102.758 18.0142 102.986 18.6619C103.219 19.3097 103.568 19.8267 104.034 20.2131C104.506 20.5937 105.096 20.7841 105.807 20.7841ZM117.046 5.54545V23H113.961V5.54545H117.046ZM125.294 23.2557C123.982 23.2557 122.848 22.983 121.894 22.4375C120.945 21.8864 120.215 21.108 119.703 20.1023C119.192 19.0909 118.936 17.9006 118.936 16.5312C118.936 15.1847 119.192 14.0028 119.703 12.9858C120.22 11.9631 120.942 11.1676 121.868 10.5994C122.794 10.0256 123.882 9.73864 125.132 9.73864C125.939 9.73864 126.701 9.86932 127.416 10.1307C128.138 10.3864 128.774 10.7841 129.326 11.3239C129.882 11.8636 130.32 12.5511 130.638 13.3864C130.956 14.2159 131.115 15.2045 131.115 16.3523V17.2983H120.385V15.2188H128.158C128.152 14.6278 128.024 14.1023 127.774 13.642C127.524 13.1761 127.175 12.8097 126.726 12.5426C126.283 12.2756 125.766 12.142 125.175 12.142C124.544 12.142 123.99 12.2955 123.513 12.6023C123.036 12.9034 122.664 13.3011 122.397 13.7955C122.135 14.2841 122.002 14.821 121.996 15.4062V17.2216C121.996 17.983 122.135 18.6364 122.414 19.1818C122.692 19.7216 123.081 20.1364 123.581 20.4261C124.081 20.7102 124.666 20.8523 125.337 20.8523C125.786 20.8523 126.192 20.7898 126.556 20.6648C126.919 20.5341 127.235 20.3438 127.502 20.0938C127.769 19.8438 127.97 19.5341 128.107 19.1648L130.987 19.4886C130.806 20.25 130.459 20.9148 129.948 21.483C129.442 22.0455 128.794 22.483 128.004 22.7955C127.215 23.1023 126.311 23.2557 125.294 23.2557Z" fill="#1A1A1A"/>
</svg>
